<svg xmlns="http://www.w3.org/2000/svg" width="1280" height="800" viewBox="0 0 1280 800" fill="none">
  <defs>
    <linearGradient id="bg" x1="0" y1="0" x2="1280" y2="800" gradientUnits="userSpaceOnUse">
      <stop stop-color="#0f172a"/>
      <stop offset="0.55" stop-color="#1e293b"/>
      <stop offset="1" stop-color="#0f766e"/>
    </linearGradient>
    <linearGradient id="node" x1="0" y1="0" x2="1" y2="1">
      <stop stop-color="#2dd4bf"/>
      <stop offset="1" stop-color="#38bdf8"/>
    </linearGradient>
  </defs>
  <rect width="1280" height="800" fill="url(#bg)"/>
  <circle cx="220" cy="180" r="90" fill="#14b8a6" opacity="0.12"/>
  <circle cx="1080" cy="620" r="140" fill="#38bdf8" opacity="0.1"/>
  <g stroke="#94a3b8" stroke-width="3" opacity="0.55">
    <path d="M340 280 C480 220, 560 360, 700 300"/>
    <path d="M700 300 C820 260, 880 420, 980 380"/>
    <path d="M700 300 C720 420, 640 500, 520 540"/>
  </g>
  <rect x="250" y="230" width="180" height="100" rx="24" fill="url(#node)"/>
  <rect x="610" y="250" width="180" height="100" rx="24" fill="#0ea5e9"/>
  <rect x="890" y="330" width="180" height="100" rx="24" fill="#14b8a6"/>
  <rect x="430" y="490" width="180" height="100" rx="24" fill="#0369a1"/>
  <text x="340" y="290" text-anchor="middle" fill="#042f2e" font-family="Segoe UI, Arial, sans-serif" font-size="28" font-weight="700">n8n</text>
  <text x="700" y="310" text-anchor="middle" fill="#fff" font-family="Segoe UI, Arial, sans-serif" font-size="24" font-weight="700">IA</text>
  <text x="980" y="390" text-anchor="middle" fill="#042f2e" font-family="Segoe UI, Arial, sans-serif" font-size="22" font-weight="700">Fiscal</text>
  <text x="520" y="550" text-anchor="middle" fill="#fff" font-family="Segoe UI, Arial, sans-serif" font-size="22" font-weight="700">Financeiro</text>
  <text x="80" y="720" fill="#e2e8f0" font-family="Segoe UI, Arial, sans-serif" font-size="42" font-weight="700">Fluxo n8n</text>
  <text x="80" y="760" fill="#94a3b8" font-family="Segoe UI, Arial, sans-serif" font-size="22">Automação com IA · financeiro &amp; fiscal</text>
</svg>
